*
G04 Mass Parameters ***
*
G04 Image ***
*
%INH:\LAM T\P DENCAMUNG\MACHDIEN\SENSOR\SENSOR.SST*%
%ICAS*%
%MOIN*%
%IPPOS*%
%ASAXBY*%
G74*%FSLAN2X34Y34*%
*
G04 Aperture Definitions ***
*
%ADD10R,0.0620X0.0620*%
%ADD11C,0.0620*%
%ADD12O,0.0570X0.0720*%
%ADD13R,0.0570X0.0720*%
%ADD14C,0.0650*%
%ADD15C,0.0100*%
%ADD16R,0.0750X0.0750*%
%ADD17C,0.0750*%
%ADD18O,0.0750X0.0900*%
%ADD19R,0.0750X0.0900*%
%ADD20C,0.0010*%
%ADD21C,0.0250*%
%ADD22R,0.0700X0.0700*%
%ADD23C,0.0800*%
%ADD24O,0.0630X0.0800*%
%ADD25R,0.0630X0.0800*%
%ADD26C,0.0080*%
%ADD27C,0.0079*%
%ADD28C,0.0050*%
%ADD29C,0.0070*%
%ADD30C,0.0320*%
%ADD31C,0.0140*%
*
G04 Plot Data ***
*
G54D15*
G01X0026708Y0005042D02*
X0026875D01*
X0026792D02*
Y0004542D01*
X0026875Y0004625D01*
X0033542Y0001242D02*
X0033792Y0001367D01*
X0033542Y0001033D02*
Y0001283D01*
X0033458Y0001367D01*
X0033375D01*
X0033292Y0001283D01*
Y0001033D01*
X0033792D01*
Y0000792D02*
Y0000625D01*
Y0000708D02*
X0033292D01*
Y0000792D02*
Y0000625D01*
X0030542Y0001692D02*
X0030042D01*
X0030542Y0001650D02*
Y0001900D01*
X0030375Y0001983D01*
X0030208D01*
X0030042Y0001900D01*
Y0001650D01*
X0030292Y0001325D02*
Y0001075D01*
X0030542Y0001408D02*
Y0001075D01*
X0030042D01*
Y0001408D01*
X0030542Y0000833D02*
Y0000542D01*
X0030042D01*
X0019542Y0001242D02*
X0019792Y0001367D01*
X0019542Y0001033D02*
Y0001283D01*
X0019458Y0001367D01*
X0019375D01*
X0019292Y0001283D01*
Y0001033D01*
X0019792D01*
Y0000792D02*
Y0000625D01*
Y0000708D02*
X0019292D01*
Y0000792D02*
Y0000625D01*
X0016542Y0001692D02*
X0016042D01*
X0016542Y0001650D02*
Y0001900D01*
X0016375Y0001983D01*
X0016208D01*
X0016042Y0001900D01*
Y0001650D01*
X0016292Y0001325D02*
Y0001075D01*
X0016542Y0001408D02*
Y0001075D01*
X0016042D01*
Y0001408D01*
X0016542Y0000833D02*
Y0000542D01*
X0016042D01*
X0005542Y0001492D02*
X0005792Y0001617D01*
X0005542Y0001283D02*
Y0001533D01*
X0005458Y0001617D01*
X0005375D01*
X0005292Y0001533D01*
Y0001283D01*
X0005792D01*
Y0001042D02*
Y0000875D01*
Y0000958D02*
X0005292D01*
Y0001042D02*
Y0000875D01*
X0002542Y0001692D02*
X0002042D01*
X0002542Y0001650D02*
Y0001900D01*
X0002375Y0001983D01*
X0002208D01*
X0002042Y0001900D01*
Y0001650D01*
X0002292Y0001325D02*
Y0001075D01*
X0002542Y0001408D02*
Y0001075D01*
X0002042D01*
Y0001408D01*
X0002542Y0000833D02*
Y0000542D01*
X0002042D01*
G54D26*
G01X0024548Y0003819D02*
X0024693D01*
X0024621D02*
Y0003386D01*
X0024693Y0003458D01*
X0025214Y0003675D02*
Y0003747D01*
X0025178Y0003819D01*
X0025033D01*
X0024997Y0003747D01*
Y0003386D01*
X0024961D02*
X0025106D01*
X0029797Y0005738D02*
X0029997D01*
X0030030Y0005671D01*
Y0005604D01*
X0029997Y0005538D01*
X0029797D01*
X0029764Y0005604D01*
Y0005671D01*
X0029897Y0005938D01*
X0029470Y0005738D02*
X0029570Y0005538D01*
X0029304Y0005738D02*
X0029504D01*
X0029570Y0005804D01*
Y0005871D01*
X0029504Y0005938D01*
X0029304D01*
Y0005538D01*
X0032317Y0005597D02*
X0032117Y0005797D01*
X0032317Y0005997D01*
X0032051D02*
Y0005597D01*
X0031691D02*
X0031624Y0005664D01*
X0031591Y0005731D01*
Y0005864D01*
X0031624Y0005931D01*
X0031691Y0005997D01*
X0031757D01*
X0031824Y0005931D01*
X0031857Y0005864D01*
Y0005731D01*
X0031824Y0005664D01*
X0031757Y0005597D01*
X0031691D01*
X0031231D02*
X0031164Y0005664D01*
X0031131Y0005731D01*
Y0005864D01*
X0031164Y0005931D01*
X0031231Y0005997D01*
X0031297D01*
X0031364Y0005931D01*
X0031397Y0005864D01*
Y0005731D01*
X0031364Y0005664D01*
X0031297Y0005597D01*
X0031231D01*
X0030937D02*
X0030804D01*
X0030871D02*
Y0005997D01*
X0030804Y0005931D01*
X0002464Y0002538D02*
X0002330D01*
X0002397D02*
Y0002938D01*
X0002330Y0002871D01*
X0001970Y0002738D02*
X0002070Y0002538D01*
X0001804Y0002738D02*
X0002004D01*
X0002070Y0002804D01*
Y0002871D01*
X0002004Y0002938D01*
X0001804D01*
Y0002538D01*
X0004007Y0002597D02*
X0003941Y0002664D01*
X0003907Y0002731D01*
Y0002864D01*
X0003941Y0002931D01*
X0004007Y0002997D01*
X0004074D01*
X0004141Y0002931D01*
X0004174Y0002864D01*
Y0002731D01*
X0004141Y0002664D01*
X0004074Y0002597D01*
X0004007D01*
X0003447Y0002664D02*
X0003514Y0002597D01*
X0003647D01*
X0003714Y0002664D01*
Y0002731D01*
X0003581Y0002864D01*
X0003714Y0002997D01*
X0003447D01*
X0002987Y0002664D02*
X0003054Y0002597D01*
X0003187D01*
X0003254Y0002664D01*
Y0002731D01*
X0003121Y0002864D01*
X0003254Y0002997D01*
X0002987D01*
X0002780Y0005671D02*
X0002514D01*
X0002647Y0005938D01*
X0002714D01*
Y0005538D01*
X0002220Y0005738D02*
X0002320Y0005538D01*
X0002054Y0005738D02*
X0002254D01*
X0002320Y0005804D01*
Y0005871D01*
X0002254Y0005938D01*
X0002054D01*
Y0005538D01*
X0004567Y0005597D02*
X0004367Y0005797D01*
X0004567Y0005997D01*
X0004301D02*
Y0005597D01*
X0003941D02*
X0003874Y0005664D01*
X0003841Y0005731D01*
Y0005864D01*
X0003874Y0005931D01*
X0003941Y0005997D01*
X0004007D01*
X0004074Y0005931D01*
X0004107Y0005864D01*
Y0005731D01*
X0004074Y0005664D01*
X0004007Y0005597D01*
X0003941D01*
X0003481D02*
X0003414Y0005664D01*
X0003381Y0005731D01*
Y0005864D01*
X0003414Y0005931D01*
X0003481Y0005997D01*
X0003547D01*
X0003614Y0005931D01*
X0003647Y0005864D01*
Y0005731D01*
X0003614Y0005664D01*
X0003547Y0005597D01*
X0003481D01*
X0003187D02*
X0003054D01*
X0003121D02*
Y0005997D01*
X0003054Y0005931D01*
X0015764Y0005604D02*
X0015797Y0005538D01*
X0015997D01*
X0016030Y0005604D01*
Y0005738D01*
X0015964Y0005804D01*
X0015764D01*
Y0005938D01*
X0016030D01*
X0015470Y0005738D02*
X0015570Y0005538D01*
X0015304Y0005738D02*
X0015504D01*
X0015570Y0005804D01*
Y0005871D01*
X0015504Y0005938D01*
X0015304D01*
Y0005538D01*
X0018317Y0005597D02*
X0018117Y0005797D01*
X0018317Y0005997D01*
X0018051D02*
Y0005597D01*
X0017691D02*
X0017624Y0005664D01*
X0017591Y0005731D01*
Y0005864D01*
X0017624Y0005931D01*
X0017691Y0005997D01*
X0017757D01*
X0017824Y0005931D01*
X0017857Y0005864D01*
Y0005731D01*
X0017824Y0005664D01*
X0017757Y0005597D01*
X0017691D01*
X0017231D02*
X0017164Y0005664D01*
X0017131Y0005731D01*
Y0005864D01*
X0017164Y0005931D01*
X0017231Y0005997D01*
X0017297D01*
X0017364Y0005931D01*
X0017397Y0005864D01*
Y0005731D01*
X0017364Y0005664D01*
X0017297Y0005597D01*
X0017231D01*
X0016937D02*
X0016804D01*
X0016871D02*
Y0005997D01*
X0016804Y0005931D01*
X0029514Y0002604D02*
X0029580Y0002538D01*
X0029714D01*
X0029780Y0002604D01*
Y0002671D01*
X0029647Y0002804D01*
X0029780Y0002938D01*
X0029514D01*
X0029220Y0002738D02*
X0029320Y0002538D01*
X0029054Y0002738D02*
X0029254D01*
X0029320Y0002804D01*
Y0002871D01*
X0029254Y0002938D01*
X0029054D01*
Y0002538D01*
X0032007Y0002597D02*
X0031941Y0002664D01*
X0031907Y0002731D01*
Y0002864D01*
X0031941Y0002931D01*
X0032007Y0002997D01*
X0032074D01*
X0032141Y0002931D01*
X0032174Y0002864D01*
Y0002731D01*
X0032141Y0002664D01*
X0032074Y0002597D01*
X0032007D01*
X0031447Y0002664D02*
X0031514Y0002597D01*
X0031647D01*
X0031714Y0002664D01*
Y0002731D01*
X0031581Y0002864D01*
X0031714Y0002997D01*
X0031447D01*
X0030987Y0002664D02*
X0031054Y0002597D01*
X0031187D01*
X0031254Y0002664D01*
Y0002731D01*
X0031121Y0002864D01*
X0031254Y0002997D01*
X0030987D01*
X0016280Y0002538D02*
X0016014D01*
X0016280Y0002804D01*
Y0002871D01*
X0016247Y0002938D01*
X0016047D01*
X0016014Y0002871D01*
X0015720Y0002738D02*
X0015820Y0002538D01*
X0015554Y0002738D02*
X0015754D01*
X0015820Y0002804D01*
Y0002871D01*
X0015754Y0002938D01*
X0015554D01*
Y0002538D01*
X0017757Y0002597D02*
X0017691Y0002664D01*
X0017657Y0002731D01*
Y0002864D01*
X0017691Y0002931D01*
X0017757Y0002997D01*
X0017824D01*
X0017891Y0002931D01*
X0017924Y0002864D01*
Y0002731D01*
X0017891Y0002664D01*
X0017824Y0002597D01*
X0017757D01*
X0017197Y0002664D02*
X0017264Y0002597D01*
X0017397D01*
X0017464Y0002664D01*
Y0002731D01*
X0017331Y0002864D01*
X0017464Y0002997D01*
X0017197D01*
X0016737Y0002664D02*
X0016804Y0002597D01*
X0016937D01*
X0017004Y0002664D01*
Y0002731D01*
X0016871Y0002864D01*
X0017004Y0002997D01*
X0016737D01*
X0028989Y0001675D02*
Y0001311D01*
X0028917Y0001675D02*
Y0001383D01*
X0028845Y0001675D02*
Y0001455D01*
X0028773Y0001675D02*
Y0001527D01*
X0028701Y0001675D02*
Y0001599D01*
X0029364Y0001664D02*
X0028636D01*
X0029292Y0001592D02*
X0028708D01*
X0029220Y0001520D02*
X0028780D01*
X0029148Y0001448D02*
X0028852D01*
X0029076Y0001376D02*
X0028924D01*
X0028625Y0001675D02*
X0028937Y0001362D01*
X0029375Y0001675D02*
X0028625D01*
X0029375D02*
X0029000Y0001300D01*
X0028937Y0001362D02*
X0029000Y0001300D01*
X0029349Y0001675D02*
Y0001649D01*
X0029277Y0001675D02*
Y0001577D01*
X0029205Y0001675D02*
Y0001505D01*
X0029133Y0001675D02*
Y0001433D01*
X0029061Y0001675D02*
Y0001361D01*
X0029000Y0001250D02*
Y0001127D01*
X0029343Y0001300D02*
X0028657D01*
X0029000Y0001938D02*
Y0001657D01*
X0014989Y0001675D02*
Y0001311D01*
X0014917Y0001675D02*
Y0001383D01*
X0014845Y0001675D02*
Y0001455D01*
X0014773Y0001675D02*
Y0001527D01*
X0014701Y0001675D02*
Y0001599D01*
X0015364Y0001664D02*
X0014636D01*
X0015292Y0001592D02*
X0014708D01*
X0015220Y0001520D02*
X0014780D01*
X0015148Y0001448D02*
X0014852D01*
X0015076Y0001376D02*
X0014924D01*
X0014625Y0001675D02*
X0014937Y0001362D01*
X0015375Y0001675D02*
X0014625D01*
X0015375D02*
X0015000Y0001300D01*
X0014937Y0001362D02*
X0015000Y0001300D01*
X0015349Y0001675D02*
Y0001649D01*
X0015277Y0001675D02*
Y0001577D01*
X0015205Y0001675D02*
Y0001505D01*
X0015133Y0001675D02*
Y0001433D01*
X0015061Y0001675D02*
Y0001361D01*
X0015000Y0001250D02*
Y0001127D01*
X0015343Y0001300D02*
X0014657D01*
X0015000Y0001938D02*
Y0001657D01*
X0031989Y0001689D02*
Y0001325D01*
X0031917Y0001617D02*
Y0001325D01*
X0031845Y0001545D02*
Y0001325D01*
X0031773Y0001473D02*
Y0001325D01*
X0031701Y0001401D02*
Y0001325D01*
X0032011Y0001689D02*
X0031989D01*
X0032083Y0001617D02*
X0031917D01*
X0032155Y0001545D02*
X0031845D01*
X0032227Y0001473D02*
X0031773D01*
X0032299Y0001401D02*
X0031701D01*
X0032371Y0001329D02*
X0031625D01*
X0032062Y0001637D02*
X0032375Y0001325D01*
X0031625D01*
X0032000Y0001700D02*
X0031625Y0001325D01*
X0032000Y0001700D02*
X0032062Y0001637D01*
X0032349Y0001351D02*
Y0001325D01*
X0032277Y0001423D02*
Y0001325D01*
X0032205Y0001495D02*
Y0001325D01*
X0032133Y0001567D02*
Y0001325D01*
X0032061Y0001639D02*
Y0001325D01*
X0032000Y0001750D02*
Y0001873D01*
X0031657Y0001700D02*
X0032343D01*
X0032000Y0001062D02*
Y0001343D01*
X0000989Y0001675D02*
Y0001311D01*
X0000917Y0001675D02*
Y0001383D01*
X0000845Y0001675D02*
Y0001455D01*
X0000773Y0001675D02*
Y0001527D01*
X0000701Y0001675D02*
Y0001599D01*
X0001364Y0001664D02*
X0000636D01*
X0001292Y0001592D02*
X0000708D01*
X0001220Y0001520D02*
X0000780D01*
X0001148Y0001448D02*
X0000852D01*
X0001076Y0001376D02*
X0000924D01*
X0000625Y0001675D02*
X0000937Y0001362D01*
X0001375Y0001675D02*
X0000625D01*
X0001375D02*
X0001000Y0001300D01*
X0000937Y0001362D02*
X0001000Y0001300D01*
X0001349Y0001675D02*
Y0001649D01*
X0001277Y0001675D02*
Y0001577D01*
X0001205Y0001675D02*
Y0001505D01*
X0001133Y0001675D02*
Y0001433D01*
X0001061Y0001675D02*
Y0001361D01*
X0001000Y0001250D02*
Y0001127D01*
X0001343Y0001300D02*
X0000657D01*
X0001000Y0001938D02*
Y0001657D01*
X0017989Y0001689D02*
Y0001325D01*
X0017917Y0001617D02*
Y0001325D01*
X0017845Y0001545D02*
Y0001325D01*
X0017773Y0001473D02*
Y0001325D01*
X0017701Y0001401D02*
Y0001325D01*
X0018011Y0001689D02*
X0017989D01*
X0018083Y0001617D02*
X0017917D01*
X0018155Y0001545D02*
X0017845D01*
X0018227Y0001473D02*
X0017773D01*
X0018299Y0001401D02*
X0017701D01*
X0018371Y0001329D02*
X0017625D01*
X0018062Y0001637D02*
X0018375Y0001325D01*
X0017625D01*
X0018000Y0001700D02*
X0017625Y0001325D01*
X0018000Y0001700D02*
X0018062Y0001637D01*
X0018349Y0001351D02*
Y0001325D01*
X0018277Y0001423D02*
Y0001325D01*
X0018205Y0001495D02*
Y0001325D01*
X0018133Y0001567D02*
Y0001325D01*
X0018061Y0001639D02*
Y0001325D01*
X0018000Y0001750D02*
Y0001873D01*
X0017657Y0001700D02*
X0018343D01*
X0018000Y0001062D02*
Y0001343D01*
X0003989Y0001689D02*
Y0001325D01*
X0003917Y0001617D02*
Y0001325D01*
X0003845Y0001545D02*
Y0001325D01*
X0003773Y0001473D02*
Y0001325D01*
X0003701Y0001401D02*
Y0001325D01*
X0004011Y0001689D02*
X0003989D01*
X0004083Y0001617D02*
X0003917D01*
X0004155Y0001545D02*
X0003845D01*
X0004227Y0001473D02*
X0003773D01*
X0004299Y0001401D02*
X0003701D01*
X0004371Y0001329D02*
X0003625D01*
X0004062Y0001637D02*
X0004375Y0001325D01*
X0003625D01*
X0004000Y0001700D02*
X0003625Y0001325D01*
X0004000Y0001700D02*
X0004062Y0001637D01*
X0004349Y0001351D02*
Y0001325D01*
X0004277Y0001423D02*
Y0001325D01*
X0004205Y0001495D02*
Y0001325D01*
X0004133Y0001567D02*
Y0001325D01*
X0004061Y0001639D02*
Y0001325D01*
X0004000Y0001750D02*
Y0001873D01*
X0003657Y0001700D02*
X0004343D01*
X0004000Y0001062D02*
Y0001343D01*
G01X0029000Y0000788D02*
G03X0029712Y0001500I0000000J0000712D01*
G01X0028288D02*
G03X0029000Y0000788I0000712J0000000D01*
Y0002212D02*
G03X0028288Y0001500I0000000J0000712D01*
G01X0029712D02*
G03X0029000Y0002212I0000712J0000000D01*
G01X0015000Y0000788D02*
G03X0015712Y0001500I0000000J0000712D01*
G01X0014288D02*
G03X0015000Y0000788I0000712J0000000D01*
Y0002212D02*
G03X0014288Y0001500I0000000J0000712D01*
G01X0015712D02*
G03X0015000Y0002212I0000712J0000000D01*
G01X0032000Y0000788D02*
G03X0032712Y0001500I0000000J0000712D01*
G01X0031288D02*
G03X0032000Y0000788I0000712J0000000D01*
Y0002212D02*
G03X0031288Y0001500I0000000J0000712D01*
G01X0032712D02*
G03X0032000Y0002212I0000712J0000000D01*
G01X0001000Y0000788D02*
G03X0001712Y0001500I0000000J0000712D01*
G01X0000288D02*
G03X0001000Y0000788I0000712J0000000D01*
Y0002212D02*
G03X0000288Y0001500I0000000J0000712D01*
G01X0001712D02*
G03X0001000Y0002212I0000712J0000000D01*
G01X0018000Y0000788D02*
G03X0018712Y0001500I0000000J0000712D01*
G01X0017288D02*
G03X0018000Y0000788I0000712J0000000D01*
Y0002212D02*
G03X0017288Y0001500I0000000J0000712D01*
G01X0018712D02*
G03X0018000Y0002212I0000712J0000000D01*
G01X0004000Y0000788D02*
G03X0004712Y0001500I0000000J0000712D01*
G01X0003288D02*
G03X0004000Y0000788I0000712J0000000D01*
Y0002212D02*
G03X0003288Y0001500I0000000J0000712D01*
G01X0004712D02*
G03X0004000Y0002212I0000712J0000000D01*
G54D27*
G01X0029062Y0003500D02*
X0029875D01*
X0030750Y0003125D02*
X0030625D01*
Y0003875D02*
X0031375D01*
X0033000Y0003500D02*
X0032125D01*
X0030625Y0003125D02*
X0031375D01*
X0015062Y0003500D02*
X0015875D01*
X0016750Y0003125D02*
X0016625D01*
Y0003875D02*
X0017375D01*
X0019000Y0003500D02*
X0018125D01*
X0016625Y0003125D02*
X0017375D01*
X0029062Y0004750D02*
X0029875D01*
X0030750Y0004375D02*
X0030625D01*
Y0005125D02*
X0031375D01*
X0033000Y0004750D02*
X0032125D01*
X0030625Y0004375D02*
X0031375D01*
X0001062Y0003500D02*
X0001875D01*
X0002750Y0003125D02*
X0002625D01*
Y0003875D02*
X0003375D01*
X0005000Y0003500D02*
X0004125D01*
X0002625Y0003125D02*
X0003375D01*
X0001062Y0004750D02*
X0001875D01*
X0002750Y0004375D02*
X0002625D01*
Y0005125D02*
X0003375D01*
X0005000Y0004750D02*
X0004125D01*
X0002625Y0004375D02*
X0003375D01*
X0015062Y0004750D02*
X0015875D01*
X0016750Y0004375D02*
X0016625D01*
Y0005125D02*
X0017375D01*
X0019000Y0004750D02*
X0018125D01*
X0016625Y0004375D02*
X0017375D01*
G01X0030333Y0003025D02*
G03X0030625Y0003125I0000000J0000475D01*
G01X0029858Y0003500D02*
G03X0030333Y0003025I0000475J0000000D01*
Y0003975D02*
G03X0029858Y0003500I0000000J0000475D01*
G01X0030625Y0003875D02*
G03X0030333Y0003975I0000292J0000375D01*
G01X0031656Y0003969D02*
G03X0031375Y0003875I0000000J0000469D01*
G01X0032125Y0003500D02*
G03X0031656Y0003969I0000469J0000000D01*
Y0003031D02*
G03X0032125Y0003500I0000000J0000469D01*
G01X0031375Y0003125D02*
G03X0031656Y0003031I0000281J0000375D01*
G01X0016333Y0003025D02*
G03X0016625Y0003125I0000000J0000475D01*
G01X0015858Y0003500D02*
G03X0016333Y0003025I0000475J0000000D01*
Y0003975D02*
G03X0015858Y0003500I0000000J0000475D01*
G01X0016625Y0003875D02*
G03X0016333Y0003975I0000292J0000375D01*
G01X0017656Y0003969D02*
G03X0017375Y0003875I0000000J0000469D01*
G01X0018125Y0003500D02*
G03X0017656Y0003969I0000469J0000000D01*
Y0003031D02*
G03X0018125Y0003500I0000000J0000469D01*
G01X0017375Y0003125D02*
G03X0017656Y0003031I0000281J0000375D01*
G01X0030333Y0004275D02*
G03X0030625Y0004375I0000000J0000475D01*
G01X0029858Y0004750D02*
G03X0030333Y0004275I0000475J0000000D01*
Y0005225D02*
G03X0029858Y0004750I0000000J0000475D01*
G01X0030625Y0005125D02*
G03X0030333Y0005225I0000292J0000375D01*
G01X0031656Y0005219D02*
G03X0031375Y0005125I0000000J0000469D01*
G01X0032125Y0004750D02*
G03X0031656Y0005219I0000469J0000000D01*
Y0004281D02*
G03X0032125Y0004750I0000000J0000469D01*
G01X0031375Y0004375D02*
G03X0031656Y0004281I0000281J0000375D01*
G01X0002333Y0003025D02*
G03X0002625Y0003125I0000000J0000475D01*
G01X0001858Y0003500D02*
G03X0002333Y0003025I0000475J0000000D01*
Y0003975D02*
G03X0001858Y0003500I0000000J0000475D01*
G01X0002625Y0003875D02*
G03X0002333Y0003975I0000292J0000375D01*
G01X0003656Y0003969D02*
G03X0003375Y0003875I0000000J0000469D01*
G01X0004125Y0003500D02*
G03X0003656Y0003969I0000469J0000000D01*
Y0003031D02*
G03X0004125Y0003500I0000000J0000469D01*
G01X0003375Y0003125D02*
G03X0003656Y0003031I0000281J0000375D01*
G01X0002333Y0004275D02*
G03X0002625Y0004375I0000000J0000475D01*
G01X0001858Y0004750D02*
G03X0002333Y0004275I0000475J0000000D01*
Y0005225D02*
G03X0001858Y0004750I0000000J0000475D01*
G01X0002625Y0005125D02*
G03X0002333Y0005225I0000292J0000375D01*
G01X0003656Y0005219D02*
G03X0003375Y0005125I0000000J0000469D01*
G01X0004125Y0004750D02*
G03X0003656Y0005219I0000469J0000000D01*
Y0004281D02*
G03X0004125Y0004750I0000000J0000469D01*
G01X0003375Y0004375D02*
G03X0003656Y0004281I0000281J0000375D01*
G01X0016333Y0004275D02*
G03X0016625Y0004375I0000000J0000475D01*
G01X0015858Y0004750D02*
G03X0016333Y0004275I0000475J0000000D01*
Y0005225D02*
G03X0015858Y0004750I0000000J0000475D01*
G01X0016625Y0005125D02*
G03X0016333Y0005225I0000292J0000375D01*
G01X0017656Y0005219D02*
G03X0017375Y0005125I0000000J0000469D01*
G01X0018125Y0004750D02*
G03X0017656Y0005219I0000469J0000000D01*
Y0004281D02*
G03X0018125Y0004750I0000000J0000469D01*
G01X0017375Y0004375D02*
G03X0017656Y0004281I0000281J0000375D01*
G54D28*
G01X0026250Y0004250D02*
Y0005375D01*
X0021125D01*
Y0005250D01*
X0026250Y0004250D02*
Y0004125D01*
X0021125D01*
Y0005250D01*
M02*
