%
T1C0.034F200S100
X001000Y001000
X001000Y002000
X001000Y003500
X001000Y004750
X004000Y001000
X004000Y002000
X005000Y003500
X005000Y004750
X015000Y001000
X015000Y002000
X015000Y003500
X015000Y004750
X018000Y001000
X018000Y002000
X019000Y003500
X019000Y004750
X029000Y001000
X029000Y002000
X029000Y003500
X029000Y004750
X032000Y001000
X032000Y002000
X033000Y003500
X033000Y004750
T2C0.045F200S100
X021750Y004750
X022750Y004750
X023750Y004750
X024750Y004750
X025750Y004750
M30
