*
G04 Mass Parameters ***
*
G04 Image ***
*
%INH:\LAM T\P DENCAMUNG\MACHDIEN\LAMP\MACHV3.DRD*%
%ICAS*%
%MOIN*%
%IPPOS*%
%ASAXBY*%
G74*%FSLAN2X34Y34*%
*
G04 Aperture Definitions ***
*
%ADD10C,0.0740*%
%ADD11R,0.0740X0.0740*%
%ADD12C,0.0750*%
%ADD13R,0.0750X0.0750*%
%ADD14O,0.0850X0.0750*%
%ADD15R,0.0900X0.0750*%
%ADD16O,0.0850X0.0720*%
%ADD17R,0.0900X0.0720*%
%ADD18O,0.0900X0.0750*%
%ADD19O,0.0900X0.0740*%
%ADD20O,0.0740X0.0900*%
%ADD21R,0.0740X0.0900*%
%ADD22R,0.0900X0.0740*%
%ADD23R,0.1000X0.1600*%
%ADD24R,0.1600X0.1600*%
%ADD25R,0.0720X0.0850*%
%ADD26R,0.2200X0.2800*%
%ADD27R,0.0720X0.0900*%
%ADD28C,0.0010*%
%ADD29C,0.0100*%
%ADD30C,0.0250*%
%ADD31C,0.0400*%
%ADD32C,0.0300*%
%ADD33C,0.0750*%
%ADD34C,0.0200*%
%ADD35C,0.0080*%
%ADD36C,0.0079*%
%ADD37C,0.0070*%
%ADD38C,0.0040*%
%ADD39C,0.0050*%
%ADD40C,0.0120*%
%ADD41C,0.0150*%
%ADD42C,0.0118*%
*
G04 Plot Data ***
*
G54D29*
G01X0059458Y-0045083D02*
X0059125D01*
X0059292D02*
Y-0044083D01*
X0059125Y-0044250D01*
X0058258Y-0045083D02*
X0058092Y-0044917D01*
X0058008Y-0044750D01*
Y-0044417D01*
X0058092Y-0044250D01*
X0058258Y-0044083D01*
X0058425D01*
X0058592Y-0044250D01*
X0058675Y-0044417D01*
Y-0044750D01*
X0058592Y-0044917D01*
X0058425Y-0045083D01*
X0058258D01*
X0057725D02*
X0057392D01*
X0057558D02*
Y-0044083D01*
X0057392Y-0044250D01*
X0047062Y-0045083D02*
X0046479D01*
Y-0044083D01*
X0046196Y-0044750D02*
X0045529D01*
X0046196Y-0045083D02*
Y-0044583D01*
X0045946Y-0044083D01*
X0045779D01*
X0045529Y-0044583D01*
Y-0045083D01*
X0044912D02*
Y-0044083D01*
X0045246D02*
X0044579D01*
X0043712Y-0045083D02*
X0043629Y-0044917D01*
Y-0044250D01*
X0043712Y-0044083D01*
X0044212D01*
X0044296Y-0044250D01*
Y-0044917D01*
X0044212Y-0045083D01*
X0043712D01*
X0043012D02*
Y-0044083D01*
X0043346D02*
X0042679D01*
X0059180Y-0043222D02*
X0059069Y-0043111D01*
X0059014Y-0043000D01*
Y-0042778D01*
X0059069Y-0042667D01*
X0059180Y-0042556D01*
X0059292D01*
X0059403Y-0042667D01*
X0059458Y-0042778D01*
Y-0043000D01*
X0059403Y-0043111D01*
X0059292Y-0043222D01*
X0059180D01*
X0058314Y-0043111D02*
X0058425Y-0043222D01*
X0058647D01*
X0058758Y-0043111D01*
Y-0043000D01*
X0058536Y-0042778D01*
X0058758Y-0042556D01*
X0058314D01*
X0045397Y-0043111D02*
X0045453Y-0043222D01*
X0045786D01*
X0045842Y-0043111D01*
Y-0042889D01*
X0045730Y-0042778D01*
X0045397D01*
Y-0042556D01*
X0045842D01*
X0045142Y-0043000D02*
X0044697D01*
X0044919Y-0042556D01*
X0045030D01*
Y-0043222D01*
X0044164D02*
X0044053Y-0043111D01*
X0043997Y-0043000D01*
Y-0042778D01*
X0044053Y-0042667D01*
X0044164Y-0042556D01*
X0044275D01*
X0044386Y-0042667D01*
X0044442Y-0042778D01*
Y-0043000D01*
X0044386Y-0043111D01*
X0044275Y-0043222D01*
X0044164D01*
X0043631D02*
X0043742D01*
Y-0043111D01*
X0043631D01*
Y-0043222D01*
X0042986D02*
X0042875Y-0043111D01*
X0042819Y-0043000D01*
Y-0042778D01*
X0042875Y-0042667D01*
X0042986Y-0042556D01*
X0043097D01*
X0043208Y-0042667D01*
X0043264Y-0042778D01*
Y-0043000D01*
X0043208Y-0043111D01*
X0043097Y-0043222D01*
X0042986D01*
X0059014Y-0041611D02*
X0059125Y-0041722D01*
X0059347D01*
X0059458Y-0041611D01*
Y-0041500D01*
X0059236Y-0041278D01*
X0059458Y-0041056D01*
X0059014D01*
X0045786Y-0041389D02*
X0045842Y-0041278D01*
Y-0041167D01*
X0045786Y-0041056D01*
X0045453D01*
X0045397Y-0041167D01*
Y-0041278D01*
X0045453Y-0041389D01*
X0045786D01*
X0045842Y-0041500D01*
Y-0041611D01*
X0045786Y-0041722D01*
X0045453D01*
X0045397Y-0041611D01*
Y-0041500D01*
X0045453Y-0041389D01*
X0044697Y-0041611D02*
X0044808Y-0041722D01*
X0045030D01*
X0045142Y-0041611D01*
Y-0041500D01*
X0044919Y-0041278D01*
X0045142Y-0041056D01*
X0044697D01*
X0044164Y-0041722D02*
X0044053Y-0041611D01*
X0043997Y-0041500D01*
Y-0041278D01*
X0044053Y-0041167D01*
X0044164Y-0041056D01*
X0044275D01*
X0044386Y-0041167D01*
X0044442Y-0041278D01*
Y-0041500D01*
X0044386Y-0041611D01*
X0044275Y-0041722D01*
X0044164D01*
X0043631D02*
X0043742D01*
Y-0041611D01*
X0043631D01*
Y-0041722D01*
X0042986D02*
X0042875Y-0041611D01*
X0042819Y-0041500D01*
Y-0041278D01*
X0042875Y-0041167D01*
X0042986Y-0041056D01*
X0043097D01*
X0043208Y-0041167D01*
X0043264Y-0041278D01*
Y-0041500D01*
X0043208Y-0041611D01*
X0043097Y-0041722D01*
X0042986D01*
X0059403Y-0039889D02*
X0059458Y-0039778D01*
Y-0039667D01*
X0059403Y-0039556D01*
X0059069D01*
X0059014Y-0039667D01*
Y-0039778D01*
X0059069Y-0039889D01*
X0059403D01*
X0059458Y-0040000D01*
Y-0040111D01*
X0059403Y-0040222D01*
X0059069D01*
X0059014Y-0040111D01*
Y-0040000D01*
X0059069Y-0039889D01*
X0058369D02*
X0058703D01*
X0058758Y-0040000D01*
Y-0040111D01*
X0058703Y-0040222D01*
X0058369D01*
X0058314Y-0040111D01*
Y-0040000D01*
X0058536Y-0039556D01*
X0045842Y-0040000D02*
X0045397D01*
X0045619Y-0039556D01*
X0045730D01*
Y-0040222D01*
X0044697Y-0040111D02*
X0044808Y-0040222D01*
X0045030D01*
X0045142Y-0040111D01*
Y-0040000D01*
X0044919Y-0039778D01*
X0045142Y-0039556D01*
X0044697D01*
X0044164Y-0040222D02*
X0044053Y-0040111D01*
X0043997Y-0040000D01*
Y-0039778D01*
X0044053Y-0039667D01*
X0044164Y-0039556D01*
X0044275D01*
X0044386Y-0039667D01*
X0044442Y-0039778D01*
Y-0040000D01*
X0044386Y-0040111D01*
X0044275Y-0040222D01*
X0044164D01*
X0043631D02*
X0043742D01*
Y-0040111D01*
X0043631D01*
Y-0040222D01*
X0042986D02*
X0042875Y-0040111D01*
X0042819Y-0040000D01*
Y-0039778D01*
X0042875Y-0039667D01*
X0042986Y-0039556D01*
X0043097D01*
X0043208Y-0039667D01*
X0043264Y-0039778D01*
Y-0040000D01*
X0043208Y-0040111D01*
X0043097Y-0040222D01*
X0042986D01*
X0067862Y-0038083D02*
X0067362D01*
X0068029Y-0038583D02*
X0067362D01*
Y-0037583D01*
X0068029D01*
X0066746Y-0038583D02*
Y-0037583D01*
X0067079D02*
X0066412D01*
X0065546Y-0038583D02*
X0065462Y-0038417D01*
Y-0037750D01*
X0065546Y-0037583D01*
X0066046D01*
X0066129Y-0037750D01*
Y-0038417D01*
X0066046Y-0038583D01*
X0065546D01*
X0065179Y-0037583D02*
Y-0038583D01*
X0065012Y-0038417D01*
X0064679Y-0037750D01*
X0064512Y-0037583D01*
Y-0038583D01*
X0058675D02*
Y-0038083D01*
X0059008Y-0037583D02*
X0058758Y-0038083D01*
X0058592D01*
X0058342Y-0037583D01*
X0057725Y-0038583D02*
Y-0037583D01*
X0058058D02*
X0057392D01*
X0056775Y-0038250D02*
X0057108Y-0038583D01*
X0056442Y-0038417D02*
X0056525Y-0038583D01*
X0056858D01*
X0056942Y-0038417D01*
X0057108Y-0038250D01*
Y-0037750D01*
X0057025Y-0037583D01*
X0056525D01*
X0056442Y-0037750D01*
Y-0038417D01*
X0052158Y-0038583D02*
X0051575D01*
Y-0037583D01*
X0050708Y-0038583D02*
X0050625Y-0038417D01*
Y-0037750D01*
X0050708Y-0037583D01*
X0051208D01*
X0051292Y-0037750D01*
Y-0038417D01*
X0051208Y-0038583D01*
X0050708D01*
X0050008D02*
Y-0037583D01*
X0050342D02*
X0049675D01*
X0044337Y-0038583D02*
Y-0037583D01*
X0044171Y-0037750D01*
X0044004Y-0038083D01*
X0043837Y-0037750D01*
X0043671Y-0037583D01*
Y-0038583D01*
X0043387Y-0038250D02*
X0042721D01*
X0043387Y-0038583D02*
Y-0038083D01*
X0043137Y-0037583D01*
X0042971D01*
X0042721Y-0038083D01*
Y-0038583D01*
X0042437D02*
X0042104D01*
X0042271D02*
Y-0037583D01*
X0042437D02*
X0042104D01*
X0041071Y-0038583D02*
Y-0037583D01*
X0040987Y-0038583D02*
X0041487D01*
X0041654Y-0038250D01*
Y-0037917D01*
X0041487Y-0037583D01*
X0040987D01*
X0037900Y-0038583D02*
Y-0037583D01*
X0037733Y-0037750D01*
X0037567Y-0038083D01*
X0037400Y-0037750D01*
X0037233Y-0037583D01*
Y-0038583D01*
X0036617D02*
Y-0038083D01*
X0036950Y-0037583D02*
X0036700Y-0038083D01*
X0036533D01*
X0036283Y-0037583D01*
X0036000Y-0037750D02*
X0035917Y-0037583D01*
X0035417D01*
X0035333Y-0037750D01*
Y-0037917D01*
X0035417Y-0038083D01*
X0035917D01*
X0036000Y-0038250D01*
Y-0038417D01*
X0035917Y-0038583D01*
X0035417D01*
X0035333Y-0038417D01*
X0058187Y-0036583D02*
Y-0035583D01*
X0058521D02*
X0057854D01*
X0057321Y-0036083D02*
X0057571Y-0036583D01*
X0056904Y-0036083D02*
X0057404D01*
X0057571Y-0035917D01*
Y-0035750D01*
X0057404Y-0035583D01*
X0056904D01*
Y-0036583D01*
X0056621Y-0036250D02*
X0055954D01*
X0056621Y-0036583D02*
Y-0036083D01*
X0056371Y-0035583D01*
X0056204D01*
X0055954Y-0036083D01*
Y-0036583D01*
X0055671Y-0036083D02*
X0055004D01*
X0055671Y-0036583D02*
Y-0035583D01*
X0055004Y-0036583D02*
Y-0035583D01*
X0054721Y-0036417D02*
X0054637Y-0036583D01*
X0054137D01*
X0054054Y-0036417D01*
Y-0035750D01*
X0054137Y-0035583D01*
X0054637D01*
X0054721Y-0035750D01*
X0052446Y-0036583D02*
X0051862D01*
Y-0035583D01*
X0051579Y-0036583D02*
X0050996D01*
Y-0035583D01*
X0050712Y-0036583D02*
X0050379D01*
X0050546D02*
Y-0035583D01*
X0050712D02*
X0050379D01*
X0049679Y-0036083D02*
X0049929Y-0036583D01*
X0049262Y-0036083D02*
X0049762D01*
X0049929Y-0035917D01*
Y-0035750D01*
X0049762Y-0035583D01*
X0049262D01*
Y-0036583D01*
X0048396D02*
Y-0035583D01*
X0048312Y-0036583D02*
X0048812D01*
X0048979Y-0036250D01*
Y-0035917D01*
X0048812Y-0035583D01*
X0048312D01*
X0011190Y0004830D02*
X0010690D01*
X0010940Y0005080D02*
Y0004580D01*
X0011090Y0001500D02*
X0010590D01*
X0010840Y0001750D02*
Y0001250D01*
X0036325Y-0042750D02*
Y-0043000D01*
X0036575Y-0042750D02*
X0036325D01*
X0036575Y-0043250D02*
Y-0042750D01*
X0036825Y-0043250D02*
X0036575D01*
X0036825Y-0043000D02*
Y-0043250D01*
X0036325Y-0043000D02*
X0036825D01*
X0036325Y-0041250D02*
Y-0041750D01*
X0036825Y-0041250D02*
X0036325D01*
X0036825Y-0041750D02*
Y-0041250D01*
X0036325Y-0041750D02*
X0036825D01*
Y-0041250D02*
X0036325Y-0041750D01*
X0036825D02*
X0036325Y-0041250D01*
X0036825Y-0040000D02*
X0036325D01*
X0036575Y-0039750D02*
Y-0040250D01*
X0072050Y-0045800D02*
X0034700D01*
X0072000Y-0045750D02*
X0034750D01*
X0072000Y-0043750D02*
X0034750D01*
X0072000Y-0042250D02*
X0034750D01*
X0072000Y-0040750D02*
X0034750D01*
X0072000Y-0039250D02*
X0034750D01*
X0072000Y-0039200D02*
X0034750D01*
X0072000Y-0037250D02*
X0034750D01*
X0072000Y-0037200D02*
X0034750D01*
X0072000Y-0035250D02*
X0034750D01*
X0072050Y-0035200D02*
X0034700D01*
X0072050Y-0045750D02*
Y-0035250D01*
X0072000Y-0045750D02*
Y-0035250D01*
X0060458Y-0045750D02*
Y-0037250D01*
X0054908Y-0045750D02*
Y-0037250D01*
X0046842Y-0043750D02*
Y-0037250D01*
X0038450Y-0043750D02*
Y-0037250D01*
X0038400Y-0043750D02*
Y-0037250D01*
X0034700Y-0045750D02*
Y-0035250D01*
X0034750Y-0045750D02*
Y-0035250D01*
X0002750Y0005500D02*
X0002250D01*
X0002500Y0005750D02*
Y0005250D01*
X0002750Y0007500D02*
X0002250D01*
X0002500Y0007750D02*
Y0007250D01*
X0005000Y0015750D02*
X0004500D01*
X0004750Y0016000D02*
Y0015500D01*
X0005000Y0014750D02*
X0004500D01*
X0004750Y0015000D02*
Y0014500D01*
X0005000Y0013750D02*
X0004500D01*
X0004750Y0014000D02*
Y0013500D01*
X0005000Y0012750D02*
X0004500D01*
X0004750Y0013000D02*
Y0012500D01*
X0005000Y0011750D02*
X0004500D01*
X0004750Y0012000D02*
Y0011500D01*
X0005000Y0010750D02*
X0004500D01*
X0004750Y0011000D02*
Y0010500D01*
X0005000Y0009750D02*
X0004500D01*
X0004750Y0010000D02*
Y0009500D01*
X0005000Y0008750D02*
X0004500D01*
X0004750Y0009000D02*
Y0008500D01*
X0005000Y0007750D02*
X0004500D01*
X0004750Y0008000D02*
Y0007500D01*
X0005000Y0006750D02*
X0004500D01*
X0004750Y0007000D02*
Y0006500D01*
X0005000Y0005750D02*
X0004500D01*
X0004750Y0006000D02*
Y0005500D01*
X0005000Y0004750D02*
X0004500D01*
X0004750Y0005000D02*
Y0004500D01*
X0005000Y0003750D02*
X0004500D01*
X0004750Y0004000D02*
Y0003500D01*
X0005000Y0002750D02*
X0004500D01*
X0004750Y0003000D02*
Y0002500D01*
X0008000Y0002750D02*
X0007500D01*
X0007750Y0003000D02*
Y0002500D01*
X0008000Y0003750D02*
X0007500D01*
X0007750Y0004000D02*
Y0003500D01*
X0008000Y0004750D02*
X0007500D01*
X0007750Y0005000D02*
Y0004500D01*
X0008000Y0005750D02*
X0007500D01*
X0007750Y0006000D02*
Y0005500D01*
X0008000Y0006750D02*
X0007500D01*
X0007750Y0007000D02*
Y0006500D01*
X0008000Y0007750D02*
X0007500D01*
X0007750Y0008000D02*
Y0007500D01*
X0008000Y0008750D02*
X0007500D01*
X0007750Y0009000D02*
Y0008500D01*
X0008000Y0009750D02*
X0007500D01*
X0007750Y0010000D02*
Y0009500D01*
X0008000Y0010750D02*
X0007500D01*
X0007750Y0011000D02*
Y0010500D01*
X0008000Y0011750D02*
X0007500D01*
X0007750Y0012000D02*
Y0011500D01*
X0008000Y0012750D02*
X0007500D01*
X0007750Y0013000D02*
Y0012500D01*
X0008000Y0013750D02*
X0007500D01*
X0007750Y0014000D02*
Y0013500D01*
X0008000Y0014750D02*
X0007500D01*
X0007750Y0015000D02*
Y0014500D01*
X0008000Y0015750D02*
X0007500D01*
X0007750Y0016000D02*
Y0015500D01*
X0005250Y0020000D02*
Y0019750D01*
X0005500Y0020000D02*
X0005250D01*
X0005500Y0019500D02*
Y0020000D01*
X0005750Y0019500D02*
X0005500D01*
X0005750Y0019750D02*
Y0019500D01*
X0005250Y0019750D02*
X0005750D01*
X0005250Y0018000D02*
Y0017750D01*
X0005500Y0018000D02*
X0005250D01*
X0005500Y0017500D02*
Y0018000D01*
X0005750Y0017500D02*
X0005500D01*
X0005750Y0017750D02*
Y0017500D01*
X0005250Y0017750D02*
X0005750D01*
X0018000Y0016500D02*
Y0016000D01*
X0018500Y0016500D02*
X0018000D01*
X0018500Y0016000D02*
Y0016500D01*
X0018000Y0016000D02*
X0018500D01*
Y0016500D02*
X0018000Y0016000D01*
X0018500D02*
X0018000Y0016500D01*
Y0019000D02*
Y0018500D01*
X0018500Y0019000D02*
X0018000D01*
X0018500Y0018500D02*
Y0019000D01*
X0018000Y0018500D02*
X0018500D01*
Y0019000D02*
X0018000Y0018500D01*
X0018500D02*
X0018000Y0019000D01*
X0016250Y0018000D02*
Y0017500D01*
X0016750Y0018000D02*
X0016250D01*
X0016750Y0017500D02*
Y0018000D01*
X0016250Y0017500D02*
X0016750D01*
Y0018000D02*
X0016250Y0017500D01*
X0016750D02*
X0016250Y0018000D01*
X0013000Y0006750D02*
X0012500D01*
X0012750Y0007000D02*
Y0006500D01*
X0017000Y0006750D02*
X0016500D01*
X0016750Y0007000D02*
Y0006500D01*
X0013000Y0005250D02*
X0012500D01*
X0012750Y0005500D02*
Y0005000D01*
X0017000Y0005250D02*
X0016500D01*
X0016750Y0005500D02*
Y0005000D01*
X0013000Y0003250D02*
X0012500D01*
X0012750Y0003500D02*
Y0003000D01*
X0017000Y0003250D02*
X0016500D01*
X0016750Y0003500D02*
Y0003000D01*
X0017500Y0010250D02*
X0017000D01*
X0017250Y0010500D02*
Y0010000D01*
X0013500Y0010250D02*
X0013000D01*
X0013250Y0010500D02*
Y0010000D01*
X0003500Y0020000D02*
X0003000D01*
X0003250Y0020250D02*
Y0019750D01*
X0003500Y0016000D02*
X0003000D01*
X0003250Y0016250D02*
Y0015750D01*
X0018500Y0006250D02*
Y0006000D01*
X0018750Y0006250D02*
X0018500D01*
X0018750Y0005750D02*
Y0006250D01*
X0019000Y0005750D02*
X0018750D01*
X0019000Y0006000D02*
Y0005750D01*
X0018500Y0006000D02*
X0019000D01*
X0018500Y0007150D02*
Y0006900D01*
X0018750Y0007150D02*
X0018500D01*
X0018750Y0006650D02*
Y0007150D01*
X0019000Y0006650D02*
X0018750D01*
X0019000Y0006900D02*
Y0006650D01*
X0018500Y0006900D02*
X0019000D01*
X0018500Y0008050D02*
Y0007800D01*
X0018750Y0008050D02*
X0018500D01*
X0018750Y0007550D02*
Y0008050D01*
X0019000Y0007550D02*
X0018750D01*
X0019000Y0007800D02*
Y0007550D01*
X0018500Y0007800D02*
X0019000D01*
X0018500Y0002500D02*
Y0002250D01*
X0018750Y0002500D02*
X0018500D01*
X0018750Y0002000D02*
Y0002500D01*
X0019000Y0002000D02*
X0018750D01*
X0019000Y0002250D02*
Y0002000D01*
X0018500Y0002250D02*
X0019000D01*
X0018500Y0003400D02*
Y0003150D01*
X0018750Y0003400D02*
X0018500D01*
X0018750Y0002900D02*
Y0003400D01*
X0019000Y0002900D02*
X0018750D01*
X0019000Y0003150D02*
Y0002900D01*
X0018500Y0003150D02*
X0019000D01*
X0018500Y0004300D02*
Y0004050D01*
X0018750Y0004300D02*
X0018500D01*
X0018750Y0003800D02*
Y0004300D01*
X0019000Y0003800D02*
X0018750D01*
X0019000Y0004050D02*
Y0003800D01*
X0018500Y0004050D02*
X0019000D01*
X0013250Y0002000D02*
Y0001750D01*
X0013500Y0002000D02*
X0013250D01*
X0013500Y0001500D02*
Y0002000D01*
X0013750Y0001500D02*
X0013500D01*
X0013750Y0001750D02*
Y0001500D01*
X0013250Y0001750D02*
X0013750D01*
X0014150Y0002000D02*
Y0001750D01*
X0014400Y0002000D02*
X0014150D01*
X0014400Y0001500D02*
Y0002000D01*
X0014650Y0001500D02*
X0014400D01*
X0014650Y0001750D02*
Y0001500D01*
X0014150Y0001750D02*
X0014650D01*
X0015050Y0002000D02*
Y0001750D01*
X0015300Y0002000D02*
X0015050D01*
X0015300Y0001500D02*
Y0002000D01*
X0015550Y0001500D02*
X0015300D01*
X0015550Y0001750D02*
Y0001500D01*
X0015050Y0001750D02*
X0015550D01*
X0009500Y0009500D02*
Y0009250D01*
X0009750Y0009500D02*
X0009500D01*
X0009750Y0009000D02*
Y0009500D01*
X0010000Y0009000D02*
X0009750D01*
X0010000Y0009250D02*
Y0009000D01*
X0009500Y0009250D02*
X0010000D01*
X0009500Y0008500D02*
Y0008250D01*
X0009750Y0008500D02*
X0009500D01*
X0009750Y0008000D02*
Y0008500D01*
X0010000Y0008000D02*
X0009750D01*
X0010000Y0008250D02*
Y0008000D01*
X0009500Y0008250D02*
X0010000D01*
X0009500Y0007500D02*
Y0007250D01*
X0009750Y0007500D02*
X0009500D01*
X0009750Y0007000D02*
Y0007500D01*
X0010000Y0007000D02*
X0009750D01*
X0010000Y0007250D02*
Y0007000D01*
X0009500Y0007250D02*
X0010000D01*
X0009500Y0006500D02*
Y0006250D01*
X0009750Y0006500D02*
X0009500D01*
X0009750Y0006000D02*
Y0006500D01*
X0010000Y0006000D02*
X0009750D01*
X0010000Y0006250D02*
Y0006000D01*
X0009500Y0006250D02*
X0010000D01*
X0009500Y0005500D02*
Y0005250D01*
X0009750Y0005500D02*
X0009500D01*
X0009750Y0005000D02*
Y0005500D01*
X0010000Y0005000D02*
X0009750D01*
X0010000Y0005250D02*
Y0005000D01*
X0009500Y0005250D02*
X0010000D01*
X0009500Y0004500D02*
Y0004250D01*
X0009750Y0004500D02*
X0009500D01*
X0009750Y0004000D02*
Y0004500D01*
X0010000Y0004000D02*
X0009750D01*
X0010000Y0004250D02*
Y0004000D01*
X0009500Y0004250D02*
X0010000D01*
X0021500Y0006750D02*
X0021000D01*
X0021250Y0007000D02*
Y0006500D01*
X0021500Y0005750D02*
X0021000D01*
X0021250Y0006000D02*
Y0005500D01*
X0021500Y0004750D02*
X0021000D01*
X0021250Y0005000D02*
Y0004500D01*
X0021500Y0003750D02*
X0021000D01*
X0021250Y0004000D02*
Y0003500D01*
X0001000Y0017000D02*
Y0016750D01*
X0001250Y0017000D02*
X0001000D01*
X0001250Y0016500D02*
Y0017000D01*
X0001500Y0016500D02*
X0001250D01*
X0001500Y0016750D02*
Y0016500D01*
X0001000Y0016750D02*
X0001500D01*
X0001000Y0016000D02*
Y0015750D01*
X0001250Y0016000D02*
X0001000D01*
X0001250Y0015500D02*
Y0016000D01*
X0001500Y0015500D02*
X0001250D01*
X0001500Y0015750D02*
Y0015500D01*
X0001000Y0015750D02*
X0001500D01*
X0001000Y0015000D02*
Y0014750D01*
X0001250Y0015000D02*
X0001000D01*
X0001250Y0014500D02*
Y0015000D01*
X0001500Y0014500D02*
X0001250D01*
X0001500Y0014750D02*
Y0014500D01*
X0001000Y0014750D02*
X0001500D01*
X0001000Y0014000D02*
Y0013750D01*
X0001250Y0014000D02*
X0001000D01*
X0001250Y0013500D02*
Y0014000D01*
X0001500Y0013500D02*
X0001250D01*
X0001500Y0013750D02*
Y0013500D01*
X0001000Y0013750D02*
X0001500D01*
X0001000Y0013000D02*
Y0012750D01*
X0001250Y0013000D02*
X0001000D01*
X0001250Y0012500D02*
Y0013000D01*
X0001500Y0012500D02*
X0001250D01*
X0001500Y0012750D02*
Y0012500D01*
X0001000Y0012750D02*
X0001500D01*
X0010500Y0011000D02*
Y0010750D01*
X0010750Y0011000D02*
X0010500D01*
X0010750Y0010500D02*
Y0011000D01*
X0011000Y0010500D02*
X0010750D01*
X0011000Y0010750D02*
Y0010500D01*
X0010500Y0010750D02*
X0011000D01*
X0010500Y0012000D02*
Y0011750D01*
X0010750Y0012000D02*
X0010500D01*
X0010750Y0011500D02*
Y0012000D01*
X0011000Y0011500D02*
X0010750D01*
X0011000Y0011750D02*
Y0011500D01*
X0010500Y0011750D02*
X0011000D01*
X0010500Y0013000D02*
Y0012750D01*
X0010750Y0013000D02*
X0010500D01*
X0010750Y0012500D02*
Y0013000D01*
X0011000Y0012500D02*
X0010750D01*
X0011000Y0012750D02*
Y0012500D01*
X0010500Y0012750D02*
X0011000D01*
X0010500Y0014000D02*
Y0013750D01*
X0010750Y0014000D02*
X0010500D01*
X0010750Y0013500D02*
Y0014000D01*
X0011000Y0013500D02*
X0010750D01*
X0011000Y0013750D02*
Y0013500D01*
X0010500Y0013750D02*
X0011000D01*
X0010500Y0015000D02*
Y0014750D01*
X0010750Y0015000D02*
X0010500D01*
X0010750Y0014500D02*
Y0015000D01*
X0011000Y0014500D02*
X0010750D01*
X0011000Y0014750D02*
Y0014500D01*
X0010500Y0014750D02*
X0011000D01*
X0010500Y0016000D02*
Y0015750D01*
X0010750Y0016000D02*
X0010500D01*
X0010750Y0015500D02*
Y0016000D01*
X0011000Y0015500D02*
X0010750D01*
X0011000Y0015750D02*
Y0015500D01*
X0010500Y0015750D02*
X0011000D01*
X0010500Y0017000D02*
Y0016750D01*
X0010750Y0017000D02*
X0010500D01*
X0010750Y0016500D02*
Y0017000D01*
X0011000Y0016500D02*
X0010750D01*
X0011000Y0016750D02*
Y0016500D01*
X0010500Y0016750D02*
X0011000D01*
X0010500Y0018000D02*
Y0017750D01*
X0010750Y0018000D02*
X0010500D01*
X0010750Y0017500D02*
Y0018000D01*
X0011000Y0017500D02*
X0010750D01*
X0011000Y0017750D02*
Y0017500D01*
X0010500Y0017750D02*
X0011000D01*
X0019750Y0010250D02*
X0019250D01*
X0019500Y0010500D02*
Y0010000D01*
X0018750Y0010250D02*
X0018250D01*
X0018500Y0010500D02*
Y0010000D01*
X0003500Y0013000D02*
X0003000D01*
X0003250Y0013250D02*
Y0012750D01*
X0003500Y0015000D02*
X0003000D01*
X0003250Y0015250D02*
Y0014750D01*
X0002250Y0003500D02*
X0001750D01*
X0002000Y0003750D02*
Y0003250D01*
X0003250Y0003500D02*
X0002750D01*
X0003000Y0003750D02*
Y0003250D01*
X0014750Y0008750D02*
X0014250D01*
X0014500Y0009000D02*
Y0008500D01*
X0016750Y0008750D02*
X0016250D01*
X0016500Y0009000D02*
Y0008500D01*
X0006500Y0010250D02*
X0006000D01*
X0006250Y0010500D02*
Y0010000D01*
X0006500Y0008250D02*
X0006000D01*
X0006250Y0008500D02*
Y0008000D01*
X0008000Y0018250D02*
X0007500D01*
X0007750Y0018500D02*
Y0018000D01*
X0009000Y0018250D02*
X0008500D01*
X0008750Y0018500D02*
Y0018000D01*
X0002250Y0009500D02*
X0001750D01*
X0002000Y0009750D02*
Y0009250D01*
X0003250Y0009500D02*
X0002750D01*
X0003000Y0009750D02*
Y0009250D01*
X0003500Y0012000D02*
X0003000D01*
X0003250Y0012250D02*
Y0011750D01*
X0002500Y0012000D02*
X0002000D01*
X0002250Y0012250D02*
Y0011750D01*
X0013000Y0008000D02*
X0012500D01*
X0012750Y0008250D02*
Y0007750D01*
X0013000Y0009000D02*
X0012500D01*
X0012750Y0009250D02*
Y0008750D01*
X0018250Y0013500D02*
X0017750D01*
X0018000Y0013750D02*
Y0013250D01*
X0018250Y0012000D02*
X0017750D01*
X0018000Y0012250D02*
Y0011750D01*
X0014250Y0012750D02*
X0013750D01*
X0014000Y0013000D02*
Y0012500D01*
X0014250Y0011750D02*
X0013750D01*
X0014000Y0012000D02*
Y0011500D01*
M02*
