%
T1C0.034F200S100
X002000Y003500
X002000Y009500
X002250Y012000
X002500Y005500
X002500Y007500
X003000Y003500
X003000Y009500
X003250Y012000
X003250Y013000
X003250Y015000
X003250Y016000
X003250Y020000
X004750Y002750
X004750Y003750
X004750Y004750
X004750Y005750
X004750Y006750
X004750Y007750
X004750Y008750
X004750Y009750
X004750Y010750
X004750Y011750
X004750Y012750
X004750Y013750
X004750Y014750
X004750Y015750
X006250Y008250
X006250Y010250
X007750Y002750
X007750Y003750
X007750Y004750
X007750Y005750
X007750Y006750
X007750Y007750
X007750Y008750
X007750Y009750
X007750Y010750
X007750Y011750
X007750Y012750
X007750Y013750
X007750Y014750
X007750Y015750
X007750Y018250
X008750Y018250
X010840Y001500
X010940Y004830
X012750Y003250
X012750Y005250
X012750Y006750
X012750Y008000
X012750Y009000
X013250Y010250
X014000Y011750
X014000Y012750
X014500Y008750
X016500Y008750
X016750Y003250
X016750Y005250
X016750Y006750
X017250Y010250
X018000Y012000
X018000Y013500
X018500Y010250
X019500Y010250
X021250Y003750
X021250Y004750
X021250Y005750
X021250Y006750
T2C0.038F200S100
X016500Y017750
X018250Y016250
X018250Y018750
T3C0.045F200S100
X001250Y012750
X001250Y013750
X001250Y014750
X001250Y015750
X001250Y016750
X005500Y017750
X005500Y019750
X009750Y004250
X009750Y005250
X009750Y006250
X009750Y007250
X009750Y008250
X009750Y009250
X010750Y010750
X010750Y011750
X010750Y012750
X010750Y013750
X010750Y014750
X010750Y015750
X010750Y016750
X010750Y017750
X013500Y001750
X014400Y001750
X015300Y001750
X018750Y002250
X018750Y003150
X018750Y004050
X018750Y006000
X018750Y006900
X018750Y007800
M30
